<svg width="22" height="13" viewBox="0 0 22 13" fill="none" xmlns="http://www.w3.org/2000/svg">
<path d="M11.65 5.00005C11.1675 3.62984 10.2041 2.48128 8.93879 1.76769C7.67345 1.0541 6.19214 0.823977 4.76996 1.12005C2.47996 1.58005 0.619955 3.41005 0.139955 5.70005C-0.0535625 6.57715 -0.0478912 7.48649 0.156551 8.36111C0.360994 9.23573 0.759002 10.0534 1.32127 10.7538C1.88354 11.4542 2.59575 12.0196 3.40546 12.4084C4.21517 12.7971 5.10176 12.9993 5.99996 13.0001C7.2399 13.0001 8.4493 12.6154 9.4613 11.8989C10.4733 11.1824 11.238 10.1696 11.65 9.00005H16V11.0001C16 12.1001 16.9 13.0001 18 13.0001C19.1 13.0001 20 12.1001 20 11.0001V9.00005C21.1 9.00005 22 8.10005 22 7.00005C22 5.90005 21.1 5.00005 20 5.00005H11.65ZM5.99996 9.00005C4.89996 9.00005 3.99996 8.10005 3.99996 7.00005C3.99996 5.90005 4.89996 5.00005 5.99996 5.00005C7.09996 5.00005 7.99996 5.90005 7.99996 7.00005C7.99996 8.10005 7.09996 9.00005 5.99996 9.00005Z" fill="url(#paint0_linear)"/>
<defs>
<linearGradient id="paint0_linear" x1="10.9994" y1="0.994141" x2="10.9994" y2="13.0001" gradientUnits="userSpaceOnUse">
<stop stop-color="#0278CD"/>
<stop offset="1" stop-color="#1098A1"/>
</linearGradient>
</defs>
</svg>
