<svg width="26" height="26" viewBox="0 0 26 26" fill="none" xmlns="http://www.w3.org/2000/svg">
<path d="M16.25 15.1666C13.3575 15.1666 7.58331 16.6075 7.58331 19.5V21.6666H24.9166V19.5C24.9166 16.6075 19.1425 15.1666 16.25 15.1666ZM6.49998 10.8333V7.58331H4.33331V10.8333H1.08331V13H4.33331V16.25H6.49998V13H9.74998V10.8333H6.49998ZM16.25 13C17.3992 13 18.5014 12.5434 19.3141 11.7308C20.1268 10.9181 20.5833 9.81592 20.5833 8.66665C20.5833 7.51737 20.1268 6.41517 19.3141 5.60252C18.5014 4.78986 17.3992 4.33331 16.25 4.33331C15.1007 4.33331 13.9985 4.78986 13.1858 5.60252C12.3732 6.41517 11.9166 7.51737 11.9166 8.66665C11.9166 9.81592 12.3732 10.9181 13.1858 11.7308C13.9985 12.5434 15.1007 13 16.25 13Z" fill="#575A6A"/>
</svg>
