<svg width="145" height="24" viewBox="0 0 145 24" fill="none" xmlns="http://www.w3.org/2000/svg">
<path d="M34.7884 0.799744L0.724854 5.74364L8.39121 12.5078L27.1781 4.89735L11.2216 15.0053L11.2289 15.0117L11.2197 15.0045L8.24503 22.7136L15.5192 18.7971L20.9654 23.6025L34.7884 0.799744Z" fill="url(#paint0_linear)"/>
<path d="M41.852 17.14C40.8626 17.14 39.9666 16.9253 39.164 16.496C38.3706 16.0573 37.7453 15.4553 37.288 14.69C36.84 13.9247 36.616 13.0613 36.616 12.1C36.616 11.1387 36.8446 10.2753 37.302 9.50999C37.7593 8.74466 38.3846 8.14733 39.178 7.71799C39.9806 7.27933 40.8766 7.05999 41.866 7.05999C42.6686 7.05999 43.4013 7.19999 44.064 7.47999C44.7266 7.75999 45.2866 8.16599 45.744 8.69799L44.568 9.80399C43.8586 9.03866 42.986 8.65599 41.95 8.65599C41.278 8.65599 40.676 8.80533 40.144 9.10399C39.612 9.39333 39.1966 9.79933 38.898 10.322C38.5993 10.8447 38.45 11.4373 38.45 12.1C38.45 12.7627 38.5993 13.3553 38.898 13.878C39.1966 14.4007 39.612 14.8113 40.144 15.11C40.676 15.3993 41.278 15.544 41.95 15.544C42.986 15.544 43.8586 15.1567 44.568 14.382L45.744 15.502C45.2866 16.034 44.722 16.44 44.05 16.72C43.3873 17 42.6546 17.14 41.852 17.14Z" fill="url(#paint1_linear)"/>
<path d="M50.4064 17.098C49.6504 17.098 48.9691 16.9347 48.3624 16.608C47.7558 16.2813 47.2798 15.8287 46.9344 15.25C46.5984 14.662 46.4304 13.9993 46.4304 13.262C46.4304 12.5247 46.5984 11.8667 46.9344 11.288C47.2798 10.7093 47.7558 10.2567 48.3624 9.92999C48.9691 9.60333 49.6504 9.43999 50.4064 9.43999C51.1718 9.43999 51.8577 9.60333 52.4644 9.92999C53.0711 10.2567 53.5424 10.7093 53.8784 11.288C54.2238 11.8667 54.3964 12.5247 54.3964 13.262C54.3964 13.9993 54.2238 14.662 53.8784 15.25C53.5424 15.8287 53.0711 16.2813 52.4644 16.608C51.8577 16.9347 51.1718 17.098 50.4064 17.098ZM50.4064 15.6C51.0504 15.6 51.5824 15.3853 52.0024 14.956C52.4224 14.5267 52.6324 13.962 52.6324 13.262C52.6324 12.562 52.4224 11.9973 52.0024 11.568C51.5824 11.1387 51.0504 10.924 50.4064 10.924C49.7624 10.924 49.2304 11.1387 48.8104 11.568C48.3998 11.9973 48.1944 12.562 48.1944 13.262C48.1944 13.962 48.3998 14.5267 48.8104 14.956C49.2304 15.3853 49.7624 15.6 50.4064 15.6Z" fill="url(#paint2_linear)"/>
<path d="M65.5059 9.43999C66.4485 9.43999 67.1952 9.71533 67.7459 10.266C68.2965 10.8073 68.5719 11.624 68.5719 12.716V17H66.8219V12.94C66.8219 12.2867 66.6772 11.7967 66.3879 11.47C66.0985 11.134 65.6832 10.966 65.1419 10.966C64.5539 10.966 64.0825 11.162 63.7279 11.554C63.3732 11.9367 63.1959 12.4873 63.1959 13.206V17H61.4459V12.94C61.4459 12.2867 61.3012 11.7967 61.0119 11.47C60.7225 11.134 60.3072 10.966 59.7659 10.966C59.1685 10.966 58.6925 11.1573 58.3379 11.54C57.9925 11.9227 57.8199 12.478 57.8199 13.206V17H56.0699V9.52399H57.7359V10.476C58.0159 10.14 58.3659 9.88333 58.7859 9.70599C59.2059 9.52866 59.6725 9.43999 60.1859 9.43999C60.7459 9.43999 61.2405 9.54733 61.6699 9.76199C62.1085 9.96733 62.4539 10.2753 62.7059 10.686C63.0139 10.294 63.4105 9.99066 63.8959 9.77599C64.3812 9.55199 64.9179 9.43999 65.5059 9.43999Z" fill="url(#paint3_linear)"/>
<path d="M80.2441 9.43999C81.1868 9.43999 81.9335 9.71533 82.4841 10.266C83.0348 10.8073 83.3101 11.624 83.3101 12.716V17H81.5601V12.94C81.5601 12.2867 81.4155 11.7967 81.1261 11.47C80.8368 11.134 80.4215 10.966 79.8801 10.966C79.2921 10.966 78.8208 11.162 78.4661 11.554C78.1115 11.9367 77.9341 12.4873 77.9341 13.206V17H76.1841V12.94C76.1841 12.2867 76.0395 11.7967 75.7501 11.47C75.4608 11.134 75.0455 10.966 74.5041 10.966C73.9068 10.966 73.4308 11.1573 73.0761 11.54C72.7308 11.9227 72.5581 12.478 72.5581 13.206V17H70.8081V9.52399H72.4741V10.476C72.7541 10.14 73.1041 9.88333 73.5241 9.70599C73.9441 9.52866 74.4108 9.43999 74.9241 9.43999C75.4841 9.43999 75.9788 9.54733 76.4081 9.76199C76.8468 9.96733 77.1921 10.2753 77.4441 10.686C77.7521 10.294 78.1488 9.99066 78.6341 9.77599C79.1195 9.55199 79.6561 9.43999 80.2441 9.43999Z" fill="url(#paint4_linear)"/>
<path d="M92.7844 9.52399V17H91.1184V16.048C90.8384 16.384 90.4884 16.6453 90.0684 16.832C89.6484 17.0093 89.1958 17.098 88.7104 17.098C87.7118 17.098 86.9231 16.8227 86.3444 16.272C85.7751 15.712 85.4904 14.886 85.4904 13.794V9.52399H87.2404V13.556C87.2404 14.228 87.3897 14.732 87.6884 15.068C87.9964 15.3947 88.4304 15.558 88.9904 15.558C89.6158 15.558 90.1104 15.3667 90.4744 14.984C90.8478 14.592 91.0344 14.032 91.0344 13.304V9.52399H92.7844Z" fill="url(#paint5_linear)"/>
<path d="M99.3177 9.43999C100.26 9.43999 101.016 9.71533 101.586 10.266C102.155 10.8167 102.44 11.6333 102.44 12.716V17H100.69V12.94C100.69 12.2867 100.536 11.7967 100.228 11.47C99.9197 11.134 99.481 10.966 98.9117 10.966C98.2677 10.966 97.759 11.162 97.3857 11.554C97.0124 11.9367 96.8257 12.492 96.8257 13.22V17H95.0757V9.52399H96.7417V10.49C97.031 10.1447 97.3951 9.88333 97.8337 9.70599C98.2724 9.52866 98.767 9.43999 99.3177 9.43999Z" fill="url(#paint6_linear)"/>
<path d="M104.66 9.52399H106.41V17H104.66V9.52399ZM105.542 8.29199C105.224 8.29199 104.958 8.19399 104.744 7.99799C104.529 7.79266 104.422 7.54066 104.422 7.24199C104.422 6.94333 104.529 6.69599 104.744 6.49999C104.958 6.29466 105.224 6.19199 105.542 6.19199C105.859 6.19199 106.125 6.28999 106.34 6.48599C106.554 6.67266 106.662 6.91066 106.662 7.19999C106.662 7.50799 106.554 7.76933 106.34 7.98399C106.134 8.18933 105.868 8.29199 105.542 8.29199Z" fill="url(#paint7_linear)"/>
<path d="M112.137 17.098C111.362 17.098 110.667 16.9347 110.051 16.608C109.435 16.2813 108.954 15.8287 108.609 15.25C108.263 14.662 108.091 13.9993 108.091 13.262C108.091 12.5247 108.263 11.8667 108.609 11.288C108.954 10.7093 109.43 10.2567 110.037 9.92999C110.653 9.60333 111.353 9.43999 112.137 9.43999C112.874 9.43999 113.518 9.58933 114.069 9.88799C114.629 10.1867 115.049 10.616 115.329 11.176L113.985 11.96C113.77 11.6147 113.499 11.358 113.173 11.19C112.855 11.0127 112.505 10.924 112.123 10.924C111.469 10.924 110.928 11.1387 110.499 11.568C110.069 11.988 109.855 12.5527 109.855 13.262C109.855 13.9713 110.065 14.5407 110.485 14.97C110.914 15.39 111.46 15.6 112.123 15.6C112.505 15.6 112.855 15.516 113.173 15.348C113.499 15.1707 113.77 14.9093 113.985 14.564L115.329 15.348C115.039 15.908 114.615 16.342 114.055 16.65C113.504 16.9487 112.865 17.098 112.137 17.098Z" fill="url(#paint8_linear)"/>
<path d="M119.697 9.43999C120.799 9.43999 121.639 9.70599 122.217 10.238C122.805 10.7607 123.099 11.554 123.099 12.618V17H121.447V16.09C121.233 16.4167 120.925 16.6687 120.523 16.846C120.131 17.014 119.655 17.098 119.095 17.098C118.535 17.098 118.045 17.0047 117.625 16.818C117.205 16.622 116.879 16.356 116.645 16.02C116.421 15.6747 116.309 15.2873 116.309 14.858C116.309 14.186 116.557 13.6493 117.051 13.248C117.555 12.8373 118.344 12.632 119.417 12.632H121.349V12.52C121.349 11.9973 121.191 11.596 120.873 11.316C120.565 11.036 120.103 10.896 119.487 10.896C119.067 10.896 118.652 10.9613 118.241 11.092C117.84 11.2227 117.499 11.4047 117.219 11.638L116.533 10.364C116.925 10.0653 117.397 9.83666 117.947 9.67799C118.498 9.51933 119.081 9.43999 119.697 9.43999ZM119.459 15.824C119.898 15.824 120.285 15.726 120.621 15.53C120.967 15.3247 121.209 15.0353 121.349 14.662V13.794H119.543C118.535 13.794 118.031 14.1253 118.031 14.788C118.031 15.1053 118.157 15.3573 118.409 15.544C118.661 15.7307 119.011 15.824 119.459 15.824Z" fill="url(#paint9_linear)"/>
<path d="M129.839 16.594C129.634 16.762 129.382 16.888 129.083 16.972C128.794 17.056 128.486 17.098 128.159 17.098C127.338 17.098 126.703 16.8833 126.255 16.454C125.807 16.0247 125.583 15.3993 125.583 14.578V10.98H124.351V9.57999H125.583V7.87199H127.333V9.57999H129.335V10.98H127.333V14.536C127.333 14.9 127.422 15.18 127.599 15.376C127.777 15.5627 128.033 15.656 128.369 15.656C128.761 15.656 129.088 15.5533 129.349 15.348L129.839 16.594Z" fill="url(#paint10_linear)"/>
<path d="M134.393 17.098C133.637 17.098 132.955 16.9347 132.349 16.608C131.742 16.2813 131.266 15.8287 130.921 15.25C130.585 14.662 130.417 13.9993 130.417 13.262C130.417 12.5247 130.585 11.8667 130.921 11.288C131.266 10.7093 131.742 10.2567 132.349 9.92999C132.955 9.60333 133.637 9.43999 134.393 9.43999C135.158 9.43999 135.844 9.60333 136.451 9.92999C137.057 10.2567 137.529 10.7093 137.865 11.288C138.21 11.8667 138.383 12.5247 138.383 13.262C138.383 13.9993 138.21 14.662 137.865 15.25C137.529 15.8287 137.057 16.2813 136.451 16.608C135.844 16.9347 135.158 17.098 134.393 17.098ZM134.393 15.6C135.037 15.6 135.569 15.3853 135.989 14.956C136.409 14.5267 136.619 13.962 136.619 13.262C136.619 12.562 136.409 11.9973 135.989 11.568C135.569 11.1387 135.037 10.924 134.393 10.924C133.749 10.924 133.217 11.1387 132.797 11.568C132.386 11.9973 132.181 12.562 132.181 13.262C132.181 13.962 132.386 14.5267 132.797 14.956C133.217 15.3853 133.749 15.6 134.393 15.6Z" fill="url(#paint11_linear)"/>
<path d="M141.722 10.616C142.226 9.83199 143.113 9.43999 144.382 9.43999V11.106C144.233 11.078 144.098 11.064 143.976 11.064C143.295 11.064 142.763 11.2647 142.38 11.666C141.998 12.058 141.806 12.6273 141.806 13.374V17H140.056V9.52399H141.722V10.616Z" fill="url(#paint12_linear)"/>
<defs>
<linearGradient id="paint0_linear" x1="1" y1="1" x2="144" y2="24" gradientUnits="userSpaceOnUse">
<stop stop-color="#0278CD"/>
<stop offset="1" stop-color="#1098A1"/>
</linearGradient>
<linearGradient id="paint1_linear" x1="1" y1="1" x2="144" y2="24" gradientUnits="userSpaceOnUse">
<stop stop-color="#0278CD"/>
<stop offset="1" stop-color="#1098A1"/>
</linearGradient>
<linearGradient id="paint2_linear" x1="1" y1="1" x2="144" y2="24" gradientUnits="userSpaceOnUse">
<stop stop-color="#0278CD"/>
<stop offset="1" stop-color="#1098A1"/>
</linearGradient>
<linearGradient id="paint3_linear" x1="1" y1="1" x2="144" y2="24" gradientUnits="userSpaceOnUse">
<stop stop-color="#0278CD"/>
<stop offset="1" stop-color="#1098A1"/>
</linearGradient>
<linearGradient id="paint4_linear" x1="1" y1="1" x2="144" y2="24" gradientUnits="userSpaceOnUse">
<stop stop-color="#0278CD"/>
<stop offset="1" stop-color="#1098A1"/>
</linearGradient>
<linearGradient id="paint5_linear" x1="1" y1="1" x2="144" y2="24" gradientUnits="userSpaceOnUse">
<stop stop-color="#0278CD"/>
<stop offset="1" stop-color="#1098A1"/>
</linearGradient>
<linearGradient id="paint6_linear" x1="1" y1="1" x2="144" y2="24" gradientUnits="userSpaceOnUse">
<stop stop-color="#0278CD"/>
<stop offset="1" stop-color="#1098A1"/>
</linearGradient>
<linearGradient id="paint7_linear" x1="1" y1="1" x2="144" y2="24" gradientUnits="userSpaceOnUse">
<stop stop-color="#0278CD"/>
<stop offset="1" stop-color="#1098A1"/>
</linearGradient>
<linearGradient id="paint8_linear" x1="1" y1="1" x2="144" y2="24" gradientUnits="userSpaceOnUse">
<stop stop-color="#0278CD"/>
<stop offset="1" stop-color="#1098A1"/>
</linearGradient>
<linearGradient id="paint9_linear" x1="1" y1="1" x2="144" y2="24" gradientUnits="userSpaceOnUse">
<stop stop-color="#0278CD"/>
<stop offset="1" stop-color="#1098A1"/>
</linearGradient>
<linearGradient id="paint10_linear" x1="1" y1="1" x2="144" y2="24" gradientUnits="userSpaceOnUse">
<stop stop-color="#0278CD"/>
<stop offset="1" stop-color="#1098A1"/>
</linearGradient>
<linearGradient id="paint11_linear" x1="1" y1="1" x2="144" y2="24" gradientUnits="userSpaceOnUse">
<stop stop-color="#0278CD"/>
<stop offset="1" stop-color="#1098A1"/>
</linearGradient>
<linearGradient id="paint12_linear" x1="1" y1="1" x2="144" y2="24" gradientUnits="userSpaceOnUse">
<stop stop-color="#0278CD"/>
<stop offset="1" stop-color="#1098A1"/>
</linearGradient>
</defs>
</svg>
