<svg width="26" height="26" viewBox="0 0 26 26" fill="none" xmlns="http://www.w3.org/2000/svg">
<path d="M20.5833 22.75V20.5833H16.25V18.4166H20.5833V16.25L23.8333 19.5L20.5833 22.75ZM10.8333 4.33331C11.9826 4.33331 13.0848 4.78986 13.8974 5.60252C14.7101 6.41517 15.1666 7.51737 15.1666 8.66665C15.1666 9.81592 14.7101 10.9181 13.8974 11.7308C13.0848 12.5434 11.9826 13 10.8333 13C9.68402 13 8.58182 12.5434 7.76916 11.7308C6.95651 10.9181 6.49996 9.81592 6.49996 8.66665C6.49996 7.51737 6.95651 6.41517 7.76916 5.60252C8.58182 4.78986 9.68402 4.33331 10.8333 4.33331V4.33331ZM10.8333 15.1666C12.0791 15.1666 13.2708 15.2966 14.3433 15.535C13.4679 16.6709 12.9953 18.0659 13 19.5C13 20.2583 13.13 20.9841 13.3683 21.6666H2.16663V19.5C2.16663 17.1058 6.04496 15.1666 10.8333 15.1666Z" fill="#575A6A"/>
</svg>
